<svg id="Ebene_1" data-name="Ebene 1" xmlns="http://www.w3.org/2000/svg" viewBox="0 0 974.89 982.75"><defs><style>.cls-1{fill:none;stroke:#323737;stroke-miterlimit:10;}.cls-2{fill:#fff;}.cls-3{fill:#37962c;}.cls-4{fill:#e61e0a;}.cls-5{fill:#323737;}</style></defs><title>Logo_RGB_Zeichenfläche 1</title><g id="K3"><circle class="cls-1" cx="478.61" cy="482.33" r="428.75"/><line class="cls-1" x1="478.61" y1="482.33" x2="478.61" y2="53.57"/><line class="cls-1" x1="478.61" y1="482.33" x2="811.82" y2="212.5"/><line class="cls-1" x1="478.61" y1="482.33" x2="898" y2="571.47"/><line class="cls-1" x1="478.61" y1="482.33" x2="666.57" y2="867.69"/><line class="cls-1" x1="478.61" y1="482.33" x2="297.41" y2="870.91"/><line class="cls-1" x1="478.61" y1="482.33" x2="60.85" y2="578.78"/><line class="cls-1" x1="478.61" y1="482.33" x2="140.75" y2="218.36"/><circle class="cls-2" cx="665.6" cy="866.84" r="15.99"/><path class="cls-3" d="M674.15,861.75a1.82,1.82,0,0,0-2.57,0l-7.8,7.79-4.16-4.16a1.82,1.82,0,0,0-2.57,2.57l5.45,5.45a1.81,1.81,0,0,0,1.28.53,1.83,1.83,0,0,0,1.29-.53l9.08-9.08A2,2,0,0,0,674.15,861.75Z"/><path class="cls-3" d="M665.6,848.5a18.17,18.17,0,1,0,18.16,18.18v0A18.19,18.19,0,0,0,665.6,848.5Zm0,32.69a14.53,14.53,0,1,1,14.53-14.53A14.54,14.54,0,0,1,665.6,881.19Z"/><circle class="cls-2" cx="296.85" cy="869.86" r="15.99"/><path class="cls-3" d="M305.4,864.76a1.82,1.82,0,0,0-2.57,0l-7.8,7.8-4.16-4.16a1.83,1.83,0,0,0-2.57,2.6h0l5.45,5.45a1.79,1.79,0,0,0,2.53,0l0,0,9.09-9.08a1.82,1.82,0,0,0,0-2.57Z"/><path class="cls-3" d="M296.85,851.52A18.16,18.16,0,1,0,315,869.69h0A18.18,18.18,0,0,0,296.85,851.52Zm0,32.69a14.53,14.53,0,1,1,14.53-14.53A14.54,14.54,0,0,1,296.85,884.21Z"/><circle class="cls-2" cx="61.04" cy="577.06" r="15.99"/><path class="cls-3" d="M69.59,572A1.82,1.82,0,0,0,67,572l0,0-7.8,7.8L55,575.63a1.82,1.82,0,0,0-2.57,2.57l5.45,5.45a1.8,1.8,0,0,0,2.56,0h0l9.09-9.08A1.83,1.83,0,0,0,69.59,572Z"/><path class="cls-3" d="M61,558.72a18.17,18.17,0,1,0,18.2,18.17A18.17,18.17,0,0,0,61,558.72Zm0,32.7a14.54,14.54,0,1,1,14.53-14.55v0A14.55,14.55,0,0,1,61,591.42Z"/><circle class="cls-2" cx="810.49" cy="212.28" r="15.99"/><path class="cls-3" d="M819,207.19a1.82,1.82,0,0,0-2.57,0l-7.8,7.8-4.17-4.17a1.81,1.81,0,0,0-2.56,2.57l5.45,5.45a1.8,1.8,0,0,0,2.56,0h0l9.09-9.08A1.83,1.83,0,0,0,819,207.19Z"/><path class="cls-3" d="M810.49,193.94a18.17,18.17,0,1,0,18.16,18.18h0A18.19,18.19,0,0,0,810.49,193.94Zm0,32.7A14.53,14.53,0,1,1,825,212.09v0A14.55,14.55,0,0,1,810.49,226.64Z"/><circle class="cls-2" cx="139.98" cy="218.34" r="15.99"/><path class="cls-4" d="M140.51,200a18.17,18.17,0,1,0,18.16,18.18v0A18.2,18.2,0,0,0,140.51,200Zm0,32.7A14.54,14.54,0,1,1,155,218.11v0A14.55,14.55,0,0,1,140.51,232.7Z"/><path class="cls-4" d="M147.24,222.33l-4.17-4.17,4.17-4.16a1.82,1.82,0,0,0-2.57-2.57l-4.16,4.17-4.17-4.17a1.82,1.82,0,0,0-2.57,2.57l4.17,4.16-4.17,4.17a1.82,1.82,0,0,0,2.57,2.57l4.17-4.17,4.16,4.17a1.82,1.82,0,0,0,2.57,0A2,2,0,0,0,147.24,222.33Z"/><circle class="cls-2" cx="896.44" cy="572.07" r="15.99"/><path class="cls-4" d="M897,553.74a18.16,18.16,0,1,0,18.16,18.16h0A18.17,18.17,0,0,0,897,553.74Zm0,32.69a14.53,14.53,0,1,1,14.5-14.56v0A14.55,14.55,0,0,1,897,586.43Z"/><path class="cls-4" d="M903.7,576.06l-4.16-4.16,4.16-4.17a1.81,1.81,0,0,0-2.57-2.56L897,569.33l-4.16-4.16a1.81,1.81,0,0,0-2.57,2.56l4.16,4.17-4.16,4.16a1.83,1.83,0,0,0,1.28,3.11,1.78,1.78,0,0,0,1.29-.54l4.16-4.16,4.17,4.16a1.79,1.79,0,0,0,2.53,0l0,0A1.82,1.82,0,0,0,903.7,576.06Z"/><path class="cls-5" d="M421.19,40.46l-8.8-10.39h-.07l1.6,11.41-6.73.95-3.72-26.38,6.74-.95L411.88,27H412l5.78-12.92,7-1L417.9,27.44l11.17,11.91Z"/><path class="cls-5" d="M444.09,38.08l-.19-2.15h-.07c-.71,1.84-3,3.12-5.6,3.35-5.88.52-10.38-3.74-10.91-9.77s3.33-11,9-11.5a6.8,6.8,0,0,1,6.09,2.28h.07l-.18-2.12,6-.52,1.76,19.91Zm-.88-10a5.06,5.06,0,0,0-5.5-4.61,5.09,5.09,0,1,0,5.5,4.61Z"/><path class="cls-5" d="M454.06,37.43l-1.29-26.61,6-.29L460,37.14Z"/><path class="cls-5" d="M473.66,37.4a10.44,10.44,0,0,1-10.87-10.5,10.76,10.76,0,0,1,21.52-.3A10.45,10.45,0,0,1,473.66,37.4Zm4.68-10.66a4.8,4.8,0,1,0-4.73,5.09A4.89,4.89,0,0,0,478.34,26.74Z"/><path class="cls-5" d="M487.23,36.83l.6-20,5.61.17-.06,2.12h.07c1.11-2.09,2.79-2.73,5.09-2.66l-.18,6c-3.57-.07-4.76,1.22-4.83,3.49l-.33,11Z"/><path class="cls-5" d="M500.72,37.32l1.15-19.95,6,.35-1.15,20ZM502,15.25l.26-4.53,6,.35L508,15.6Z"/><path class="cls-5" d="M516.1,30.16a4.47,4.47,0,0,0,4.3,4.21,4.23,4.23,0,0,0,3.8-1.52l6.09.58c-2.31,4.15-6.18,6.35-10.37,6A10.65,10.65,0,1,1,531.3,30a7.29,7.29,0,0,1-.29,1.56ZM525.58,27a4.72,4.72,0,0,0-9-.86Z"/><path class="cls-5" d="M545.37,41.89l1.61-11c.39-2.67-.35-4.05-2.52-4.37-2.39-.35-3.58.82-4,3.49l-1.6,10.9L533,40.07l2.9-19.77,5.52.81-.31,2.11h.07a5.75,5.75,0,0,1,5.79-2c3.56.52,7,3.07,6.18,8.91l-1.84,12.61Z"/><path class="cls-5" d="M912.47,684.16a8.28,8.28,0,0,1-.28,7.55c-2.56,5.12-9.18,7.32-14,4.91a10.53,10.53,0,0,1-4.74-14.33,9.63,9.63,0,0,1,5.63-4.91l-2.06-1,1.68-3.35,15.48,7.75c5.8,2.89,7.58,8.25,4.56,14.31a10.35,10.35,0,0,1-10.05,6l1.87-3.73a6.53,6.53,0,0,0,5.13-3.83c2.05-4.09.91-7.36-3.18-9.41Zm-6.54-3.35a6.82,6.82,0,0,0-9.48,3.11,7.08,7.08,0,0,0,12.67,6.29A7.11,7.11,0,0,0,905.93,680.81Z"/><path class="cls-5" d="M911.83,671.43a6.84,6.84,0,0,0,7.55-3.92,6.41,6.41,0,0,0-.87-6.54l1.45-3.45A10.22,10.22,0,0,1,922.48,669a10.45,10.45,0,0,1-13.43,5.35c-5.8-2.44-8-8.53-5.95-13.4a10.15,10.15,0,0,1,13.46-5.54,11,11,0,0,1,1.69.83Zm2.35-13a6.48,6.48,0,0,0-5,11.88Z"/><path class="cls-5" d="M916.5,642.83a2.45,2.45,0,0,0-3.15,1.55,2.16,2.16,0,0,0,1.17,2.94c1.58.59,2.66-.85,3.93-2.49,1.79-2.33,4.29-4.16,7.76-2.86s5,4.86,3.62,8.5a6.8,6.8,0,0,1-9.08,4.14l1.31-3.51c2.32.68,3.9,0,4.59-1.89a2.66,2.66,0,0,0-1.55-3.66c-1.28-.48-2.49.18-4,2.11-3.16,4-5.45,4.07-7.57,3.28a6,6,0,0,1-3.3-7.92,5.88,5.88,0,0,1,7.61-3.69Z"/><path class="cls-5" d="M912.93,628.25l-4.18-1.37,1.16-3.55,4.18,1.36Zm1.73-5.31-4.18-1.36,1.16-3.56,4.18,1.36Zm23.44,2-2.94-1,0,.07a7.57,7.57,0,0,1,1.33,7.55,10.29,10.29,0,0,1-12.94,6.92c-6.06-2-8.88-7.71-7.06-13.29a7.93,7.93,0,0,1,5.33-5.54l0-.07-2.67-.87,1.16-3.56,19,6.19Zm-9.42-3.15a6.89,6.89,0,0,0-8.94,4.4,7.07,7.07,0,1,0,8.94-4.4Z"/><path class="cls-5" d="M940.85,615.62,925,611.1l-.74,2.6-3.29-.94.74-2.59-6.44-1.84,1-3.6,6.44,1.84.9-3.15,3.29.93-.9,3.15L941.87,612Z"/><path class="cls-5" d="M943.59,605.76l-16-4.19-.68,2.62-3.31-.87.68-2.61-6.48-1.7.95-3.62,6.48,1.7.83-3.17,3.31.86-.83,3.17,16,4.19Z"/><path class="cls-5" d="M924.39,591l-4.27-1,.88-3.64,4.27,1ZM946,596.24l-19.4-4.67.88-3.64,19.39,4.67Z"/><path class="cls-5" d="M948.89,570.78a8.23,8.23,0,0,1,1.7,7.36c-1.13,5.61-6.94,9.47-12.24,8.4a10.54,10.54,0,0,1-8.32-12.6,9.67,9.67,0,0,1,4.16-6.21l-2.26-.45.74-3.67,17,3.43c6.36,1.29,9.48,6,8.14,12.63a10.38,10.38,0,0,1-8.13,8.42l.82-4.1a6.52,6.52,0,0,0,4-5c.91-4.49-1-7.34-5.53-8.25Zm-7.18-1.53a6.85,6.85,0,0,0-8.35,5.48,7.07,7.07,0,1,0,8.35-5.48Z"/><path class="cls-5" d="M953.11,561.88l-16.31-2.66-.44,2.66-3.37-.55.43-2.66-6.61-1.08.61-3.7L934,555l.53-3.23,3.37.55-.53,3.23,16.31,2.67Z"/><path class="cls-5" d="M946.8,548.25a6.84,6.84,0,0,0,6.22-5.82,6.43,6.43,0,0,0-2.6-6.07l.47-3.71A10.21,10.21,0,0,1,956.4,543a10.46,10.46,0,0,1-11.5,8.78c-6.25-.8-10-6.07-9.34-11.32a10.16,10.16,0,0,1,11.48-9,11,11,0,0,1,1.85.34Zm-1.23-13.16A6.48,6.48,0,0,0,944,547.88Z"/><path class="cls-5" d="M958.47,517.7l-26.59-1.6.81-13.44,3.55.21-.57,9.56,8,.48.57-9.56,3.56.22-.57,9.55,11.49.69Z"/><path class="cls-5" d="M951.17,497.56a6.83,6.83,0,0,0,5.55-6.45,6.43,6.43,0,0,0-3.24-5.75l.06-3.74a10.21,10.21,0,0,1,6.6,9.7,10.45,10.45,0,0,1-10.48,10c-6.3-.11-10.6-4.94-10.51-10.23a10.16,10.16,0,0,1,10.44-10.15,11.15,11.15,0,0,1,1.87.14Zm-2.65-12.93a6.47,6.47,0,0,0-.23,12.88Z"/><path class="cls-5" d="M959.68,476.44l-16.52.29,0,2.7-3.42.06,0-2.7-6.7.11-.07-3.74,6.7-.12-.06-3.27,3.42-.06.06,3.27,16.52-.28Z"/><path class="cls-5" d="M959.44,466.16l-16.52.64.11,2.7-3.42.13-.11-2.7-6.69.26-.14-3.74,6.69-.26-.13-3.27,3.42-.14.13,3.28,16.51-.64Z"/><path class="cls-5" d="M943.88,449.43a2.45,2.45,0,0,0-2.24,2.71,2.17,2.17,0,0,0,2.28,2.19c1.68-.11,2.07-1.87,2.55-3.88.68-2.86,2.2-5.56,5.9-5.8s6.54,2.38,6.8,6.26a6.8,6.8,0,0,1-6.58,7.5l-.25-3.73c2.4-.34,3.54-1.64,3.41-3.62a2.66,2.66,0,0,0-2.92-2.69c-1.37.09-2.19,1.19-2.79,3.57-1.23,5-3.29,6-5.55,6.11a6,6,0,0,1-6.27-5.87,5.89,5.89,0,0,1,5.41-6.49Z"/><path class="cls-5" d="M934,432.06l-4.36.48-.41-3.72,4.37-.48Zm.61,5.55-4.37.47-.4-3.72,4.36-.47Zm21.56-13.4-3.07.33v.07a7.58,7.58,0,0,1,4.32,6.34,10.28,10.28,0,0,1-8.94,11.62c-6.34.69-11.27-3.36-11.91-9.2a7.94,7.94,0,0,1,2.58-7.23v-.07l-2.79.3-.41-3.72,19.83-2.17Zm-9.88,1a6.88,6.88,0,0,0-6.33,7.68,7.07,7.07,0,1,0,6.33-7.68Z"/><path class="cls-5" d="M952.75,401l-2.13.34v.07c1.82.69,3.14,2.78,3.56,5.37.68,4.23-1,8.58-7.89,9.7l-11,1.76-.6-3.7,10.7-1.72c4.13-.66,5.87-2.51,5.33-5.88s-3.21-4.77-7-4.16l-10.63,1.71-.6-3.7,19.7-3.17Z"/><path class="cls-5" d="M951.17,392.41l-19.57,3.87-.68-3.42,1.77-.35v-.07c-1.48-.63-2.63-2-3.28-4.53l3.77-.75c.74,3.16,3,4.4,6.29,3.75l11-2.18Z"/><path class="cls-5" d="M940.14,380.17a6.86,6.86,0,0,0,3.79-7.63,6.45,6.45,0,0,0-4.57-4.77l-.86-3.64a10.23,10.23,0,0,1,8.79,7.76,10.45,10.45,0,0,1-7.68,12.25c-6.14,1.45-11.5-2.16-12.72-7.31a10.17,10.17,0,0,1,7.61-12.42,11,11,0,0,1,1.84-.32Zm-5.76-11.88a6.47,6.47,0,0,0,3,12.54Z"/><path class="cls-5" d="M939.45,344.44l-10.45,3c-4,1.17-5.49,3.31-4.57,6.49s3.77,4.38,7.37,3.35l10.48-3,1,3.6-19.16,5.52-1-3.36,2-.59,0-.07A7,7,0,0,1,921,354.5c-1.32-4.6.6-8.83,5.9-10.35l11.48-3.31Z"/><path class="cls-5" d="M793.06,156.23l18.89-19,5.51,5.49c4.07,4.05,4.64,8.65.94,12.37s-8.25,3.21-12.35-.87l-2.77-2.76L795.83,159Zm15.49-4.53c2.44,2.42,5,2.72,7.09.67s1.67-4.7-.73-7.1l-2.72-2.71L805.81,149Z"/><path class="cls-5" d="M807,170.33l14.61-13.71,2.4,2.56-1.32,1.24,0,.05c1.6-.25,3.29.29,5.2,2.11l-2.82,2.65c-2.3-2.3-4.89-2.15-7.34.15l-8.2,7.69Z"/><path class="cls-5" d="M820.37,185.77a10.83,10.83,0,0,1,.88-14.91,10.81,10.81,0,0,1,14.14,16.36A10.75,10.75,0,0,1,820.37,185.77Zm13.38-11.5a7.11,7.11,0,1,0-.67,10A7,7,0,0,0,833.75,174.27Z"/><path class="cls-5" d="M830.22,196.68l12.92-10.42-1.7-2.11,2.67-2.15,1.7,2.11,5.24-4.22,2.36,2.92L848.18,187l2.06,2.56-2.67,2.15-2.07-2.56-12.92,10.42Z"/><path class="cls-5" d="M844.35,200.93a6.87,6.87,0,0,0-.43,8.54A6.47,6.47,0,0,0,850,212l2.25,3a10.26,10.26,0,0,1-11.2-3.62,10.49,10.49,0,0,1,2.16-14.36c5.06-3.8,11.46-2.62,14.64,1.63a10.2,10.2,0,0,1-2,14.48,11,11,0,0,1-1.57,1Zm10.07,8.63a6.5,6.5,0,0,0-7.76-10.36Z"/><path class="cls-5" d="M849.46,222.09l16.44-11.45,2.15,3.08-16.44,11.45Zm18.34-12.78,3.62-2.52,2.15,3.09L870,212.4Z"/><path class="cls-5" d="M861.77,240.51l9.17-5.93c3.55-2.3,4.31-4.78,2.5-7.57s-4.9-3.12-8.06-1.07l-9.19,5.95-2-3.15L871,217.85l1.9,2.94L871.07,222l0,.06a7,7,0,0,1,5.43,3.46c2.62,4,2,8.67-2.65,11.67l-10.07,6.53Z"/><path class="cls-5" d="M874.64,245.38a6.87,6.87,0,0,0-1.43,8.43,6.47,6.47,0,0,0,5.78,3.26l1.88,3.25a10.26,10.26,0,0,1-10.7-4.91,10.49,10.49,0,0,1,3.83-14c5.48-3.18,11.69-1.26,14.36,3.34a10.21,10.21,0,0,1-3.72,14.15,11,11,0,0,1-1.68.85Zm9,9.75a6.51,6.51,0,0,0-6.49-11.21Z"/><path class="cls-5" d="M90.65,246.5l-3-1.92L77.22,224.25l-5.89,9.32-3-1.92,8.23-13,3,1.92L90,240.81l6.43-10.17,3,1.91Z"/><path class="cls-5" d="M108.67,219.13l-1.78-1.24,0,.06c.85,1.78.35,4.21-1.15,6.39-2.46,3.55-6.67,5.57-12.49,1.54L84,219.51l2.15-3.1,9,6.21c3.46,2.39,6,2.26,8-.57s1-5.7-2.19-7.91L92,208l2.15-3.1,16.51,11.43Z"/><path class="cls-5" d="M119.48,193.67a10.35,10.35,0,0,1-14.83,14.06c-4.81-3.68-5.88-10-2.31-14.69a10.17,10.17,0,0,1,11.76-3.5l-2.53,3.31a5.94,5.94,0,0,0-6.43,2.2c-2.4,3.14-1.63,7.07,1.63,9.56s7.32,2.18,9.63-.84a6.07,6.07,0,0,0,.53-6.77Z"/><path class="cls-5" d="M126.56,195.54,106,178.3l2.42-2.89L129,192.65Zm7.65-9.11-13.14-.52-2.83-11.69,2.87-3.41,2.56,11.66,13.56.35Z"/><path class="cls-5" d="M133.29,174.67a6.91,6.91,0,0,0,8.49-1.18,6.46,6.46,0,0,0,1.38-6.5l2.54-2.78a10.28,10.28,0,0,1-1.47,11.71,10.53,10.53,0,0,1-14.55.55c-4.68-4.28-4.72-10.8-1.12-14.73a10.22,10.22,0,0,1,14.64-.7,10.59,10.59,0,0,1,1.32,1.35Zm6.62-11.54a6.52,6.52,0,0,0-8.76,9.58Z"/><path class="cls-5" d="M153.15,165.7l-14.29-14.1,2.47-2.51,1.29,1.28,0-.06c-.32-1.58.16-3.3,1.91-5.29l2.77,2.73c-2.22,2.39-2,5,.43,7.35l8,7.91Z"/><path class="cls-5" d="M1.79,508.11l26.59-1.59.43,7.23c.29,4.88-2.58,8.16-6.75,8.4a6,6,0,0,1-5.31-2.06,7,7,0,0,1-6.24,4.34c-4.74.28-7.94-3.1-8.22-7.95Zm4,7.84c.17,2.76,1.87,4.75,4.46,4.6,1.8-.11,4.17-1.48,4-5L14,511.28l-8.4.5Zm11.91-1.69c.16,2.62,1.51,4.17,4,4s3.68-1.84,3.51-4.68l-.18-3-7.51.44Z"/><path class="cls-5" d="M5.24,545.69l3.07-.36v-.08A7.58,7.58,0,0,1,3.92,539a10.28,10.28,0,0,1,8.82-11.71c6.33-.76,11.31,3.25,12,9.07a8,8,0,0,1-2.51,7.26v.07l2.79-.33.45,3.72L5.68,549.41Zm9.87-1.11a6.87,6.87,0,0,0,6.25-7.74,7,7,0,0,0-7.88-5.91,6.87,6.87,0,1,0,1.63,13.65Z"/><path class="cls-5" d="M6.58,554.84l26.32-4.12.58,3.7L7.16,558.54Z"/><path class="cls-5" d="M8,563.54l26.24-4.6.64,3.68L8.63,567.23Z"/><path class="cls-5" d="M12.9,588.47l3-.64v-.07A7.57,7.57,0,0,1,11,581.89a10.28,10.28,0,0,1,7.73-12.46c6.23-1.33,11.55,2.21,12.77,8a8,8,0,0,1-1.84,7.46l0,.07,2.74-.58.78,3.66-19.51,4.15Zm9.74-2a6.87,6.87,0,0,0,5.52-8.28,7.07,7.07,0,1,0-5.52,8.28Z"/><path class="cls-5" d="M31.17,601.3a2.45,2.45,0,0,0,1.7-3.08,2.17,2.17,0,0,0-2.64-1.74c-1.64.43-1.7,2.23-1.79,4.3-.14,2.93-1.13,5.86-4.72,6.79s-6.87-1.12-7.84-4.89a6.79,6.79,0,0,1,5.06-8.59l.94,3.62c-2.29.78-3.17,2.27-2.67,4.19a2.66,2.66,0,0,0,3.37,2.1c1.32-.34,1.93-1.58,2.08-4,.27-5.13,2.12-6.46,4.32-7a6,6,0,0,1,7.24,4.6,5.89,5.89,0,0,1-4.11,7.38Z"/><path class="cls-5" d="M19.31,613.43l15.88-4.59-.75-2.59,3.28-1,.75,2.59L44.9,606l1,3.6-6.43,1.86.91,3.14-3.29,1-.91-3.14L20.35,617Z"/><path class="cls-5" d="M38.44,626A2.45,2.45,0,0,0,40,622.79a2.16,2.16,0,0,0-2.73-1.58c-1.61.51-1.57,2.31-1.55,4.38,0,2.94-.79,5.92-4.33,7s-6.92-.74-8.1-4.44a6.8,6.8,0,0,1,4.58-8.87L29,622.9c-2.24.9-3,2.44-2.43,4.33A2.67,2.67,0,0,0,30,629.14c1.3-.42,1.84-1.68,1.85-4.14,0-5.14,1.76-6.57,3.92-7.26a6,6,0,0,1,7.49,4.18,5.88,5.88,0,0,1-3.69,7.6Z"/><path class="cls-5" d="M27.28,638.72l15.59-5.47L42,630.7l3.22-1.14.9,2.55,6.32-2.22,1.24,3.54-6.32,2.22,1.08,3.09-3.23,1.13-1.08-3.09-15.59,5.47Z"/><path class="cls-5" d="M33.6,657.29a10.76,10.76,0,0,1,5.8-13.69,10.76,10.76,0,0,1,7.81,20.06A10.7,10.7,0,0,1,33.6,657.29ZM50,651a7.08,7.08,0,1,0-4,9.14A7,7,0,0,0,50,651Z"/><path class="cls-5" d="M43.51,679.46l15.08-6.77-2.08-4.63-15.08,6.76L39.9,671.4,55,664.64,54.26,663l3.12-1.4.72,1.61.83-.36c3.15-1.42,6.23-.27,7.89,3.44l.36.79-3.12,1.4c-.89-2-2.06-2.91-3.6-2.22l-.82.37,2.07,4.63.82-.37c3.16-1.41,6.24-.26,7.9,3.45l.35.79-3.12,1.4c-.88-2-2-2.91-3.59-2.22l-.83.37,1.43,3.19-3.12,1.4-1.43-3.19L45,682.87Z"/><path class="cls-5" d="M56.23,687a6.83,6.83,0,0,0-1.91,8.29,6.41,6.41,0,0,0,5.54,3.58l1.68,3.35a10.25,10.25,0,0,1-10.35-5.53A10.45,10.45,0,0,1,55.84,683c5.63-2.83,11.69-.55,14.06,4.18A10.16,10.16,0,0,1,65.37,701a11.86,11.86,0,0,1-1.72.74Zm8.36,10.22a6.48,6.48,0,0,0-5.78-11.52Z"/><path class="cls-5" d="M107.12,782.51l8.8-6.86c3-2.32,3.69-4.87,1.76-7.35s-4.37-2.62-7.52-.16L101.3,775,99,772.09l9.15-7.13c3.09-2.41,3.19-4.81,1.53-6.94-2-2.61-4.57-2.69-7.66-.28l-8.84,6.88-2.3-3,15.74-12.25,2.12,2.72-1.7,1.33,0,.06a6.62,6.62,0,0,1,5.65,2.86c1.59,2,2.19,4.86,1.16,6.94,2.68-.26,4.74.64,6.69,3.14,3.19,4.09,2.44,8.41-1.62,11.57l-9.54,7.43Z"/><path class="cls-5" d="M121.08,786.25a6.85,6.85,0,0,0,.21,8.51,6.43,6.43,0,0,0,6.26,2.09l2.47,2.82a10.23,10.23,0,0,1-11.4-2.77,10.45,10.45,0,0,1,1.09-14.42c4.74-4.14,11.18-3.44,14.65.54a10.16,10.16,0,0,1-.93,14.53,11.26,11.26,0,0,1-1.49,1.15Zm10.64,7.82a6.47,6.47,0,0,0-8.47-9.71Z"/><path class="cls-5" d="M138.37,817.53l7.81-7.51c3.09-3,3.34-5.51,1-7.89s-5.35-2.14-8.15.55l-7.79,7.49-2.59-2.7L147.89,789l2.59,2.7-6.35,6.12.05,0A6.29,6.29,0,0,1,150,800c3.3,3.43,3.59,8.09-.36,11.88L141,820.23Z"/><path class="cls-5" d="M144.72,823.85l13.85-14.35,2.51,2.43-1.25,1.3,0,0c1.58-.34,3.29.12,5.28,1.84l-2.68,2.77c-2.4-2.17-5-1.9-7.29.51l-7.78,8.05Z"/><path class="cls-5" d="M153.35,832.09l11.2-12.15-1.3-1.19,2.32-2.52,1.3,1.2.61-.66c2.58-2.81,5.91-2.43,8.64.08l.6.56-2.31,2.51c-1.8-1.66-3.16-1.73-4.16-.64l-.63.69,2.57,2.36-2.32,2.52-2.57-2.37-11.2,12.15Z"/><path class="cls-5" d="M172.83,849.32l2-2.35-.06-.05a7.58,7.58,0,0,1-7.48-1.67,10.28,10.28,0,0,1-1.43-14.59c4.15-4.84,10.52-5.25,15-1.43a8,8,0,0,1,3.07,7l0,0,1.83-2.13,2.84,2.44-13,15.14Zm6.52-7.49a6.89,6.89,0,0,0-.63-9.94,7.08,7.08,0,1,0,.63,9.94Z"/><path class="cls-5" d="M199,861.6a10.28,10.28,0,0,1-13.92-14.78c3.67-4.76,10-5.81,14.6-2.24a10.08,10.08,0,0,1,3.43,11.69l-3.28-2.53a5.9,5.9,0,0,0-2.15-6.39c-3.11-2.4-7-1.64-9.5,1.58s-2.2,7.27.8,9.58a6,6,0,0,0,6.71.54Z"/><path class="cls-5" d="M209.4,877l6.2-8.89c2.46-3.51,2.21-6-.5-7.95s-5.67-1.06-7.9,2.13L201,871.09,198,869l15.25-21.84,3.07,2.14-5.05,7.23.06,0a6.33,6.33,0,0,1,6.1,1c3.9,2.73,5.09,7.25,2,11.73l-6.86,9.83Z"/><path class="cls-5" d="M238.37,895.22l1.11-1.85-.06,0c-1.7,1-4.15.63-6.4-.72-3.68-2.19-6-6.24-2.37-12.27l5.7-9.55,3.22,1.92L234,882c-2.15,3.59-1.85,6.11,1.09,7.87s5.72.6,7.69-2.71l5.52-9.24,3.21,1.92L241.31,897Z"/><path class="cls-5" d="M258.37,906.21l5.12-9.6c2-3.71,1.45-6.24-1.48-7.8s-5.77-.34-7.53,3l-5.13,9.63L246,899.64l9.38-17.6,3.08,1.64-1,1.87.06,0a7,7,0,0,1,6.4.39c4.22,2.25,5.92,6.58,3.33,11.44L261.68,908Z"/><path class="cls-5" d="M282.62,915.06a8.27,8.27,0,0,1-7.56-.08c-5.18-2.43-7.56-9-5.27-13.88A10.53,10.53,0,0,1,284,896a9.63,9.63,0,0,1,5.06,5.51l1-2.08,3.39,1.58-7.35,15.69c-2.74,5.87-8.06,7.79-14.19,4.92a10.36,10.36,0,0,1-6.26-9.89l3.78,1.77a6.55,6.55,0,0,0,4,5c4.15,1.94,7.38.71,9.32-3.43Zm3.18-6.62a6.83,6.83,0,0,0-3.36-9.4,7.08,7.08,0,0,0-6,12.83A7.12,7.12,0,0,0,285.8,908.44Z"/><path class="cls-5" d="M295.16,914.3a6.85,6.85,0,0,0,4,7.51,6.44,6.44,0,0,0,6.53-.95l3.47,1.41a10.22,10.22,0,0,1-11.43,2.65,10.45,10.45,0,0,1-5.51-13.36c2.38-5.84,8.44-8.11,13.34-6.11a10.16,10.16,0,0,1,5.69,13.4,10.79,10.79,0,0,1-.81,1.69Zm13,2.2a6.47,6.47,0,0,0-11.93-4.86Z"/><path class="cls-5" d="M323.81,918.63a2.44,2.44,0,0,0-1.58-3.13,2.17,2.17,0,0,0-2.93,1.2c-.57,1.59.89,2.65,2.54,3.9,2.35,1.77,4.22,4.23,3,7.72s-4.8,5-8.46,3.73a6.79,6.79,0,0,1-4.25-9l3.53,1.27c-.65,2.33.08,3.89,1.95,4.57a2.67,2.67,0,0,0,3.63-1.6c.47-1.29-.21-2.49-2.16-4-4.08-3.12-4.14-5.4-3.37-7.53a6,6,0,0,1,7.88-3.4,5.89,5.89,0,0,1,3.79,7.56Z"/><path class="cls-5" d="M342,940l.92-3-.07,0a7.56,7.56,0,0,1-7.53,1.42,10.27,10.27,0,0,1-7.07-12.84c1.89-6.08,7.59-9,13.19-7.23a8,8,0,0,1,5.6,5.25l.06,0,.84-2.68,3.58,1.12-5.94,19Zm3-9.46a6.88,6.88,0,0,0-4.51-8.87,7.07,7.07,0,1,0,4.51,8.87Zm-6.69-15.66,1.31-4.2,3.57,1.12L341.91,916Zm5.33,1.66,1.3-4.19,3.58,1.11-1.31,4.19Z"/><path class="cls-5" d="M351.34,942.63l4.32-16-2.6-.71.89-3.3,2.61.71,1.75-6.47,3.61,1-1.75,6.47,3.16.85-.89,3.3-3.16-.85-4.32,16Z"/><path class="cls-5" d="M361.24,945.25l4-16-2.62-.65.83-3.32,2.62.65,1.61-6.5,3.63.9-1.61,6.5,3.18.79L372,930.9l-3.18-.79-4,16Z"/><path class="cls-5" d="M370.77,947.55l4.42-19.45,3.66.83-4.42,19.45Zm4.94-21.69,1-4.29,3.65.83-1,4.29Z"/><path class="cls-5" d="M396.27,950.1a8.27,8.27,0,0,1-7.34,1.79c-5.62-1.06-9.55-6.83-8.54-12.13a10.53,10.53,0,0,1,12.49-8.48,9.59,9.59,0,0,1,6.26,4.08l.43-2.26,3.68.7-3.23,17c-1.21,6.37-5.88,9.55-12.53,8.29a10.39,10.39,0,0,1-8.52-8l4.11.78a6.53,6.53,0,0,0,5.08,3.89c4.5.86,7.33-1.14,8.18-5.63Zm1.44-7.2a6.84,6.84,0,0,0-5.58-8.28,7.08,7.08,0,0,0-2.6,13.91A7.11,7.11,0,0,0,397.71,942.9Z"/><path class="cls-5" d="M405.2,954.2l2.46-16.34-2.67-.4.51-3.39,2.67.41,1-6.63,3.7.56-1,6.62,3.24.49-.52,3.38-3.24-.48-2.46,16.34Z"/><path class="cls-5" d="M418.76,947.73a6.85,6.85,0,0,0,5.89,6.15,6.42,6.42,0,0,0,6-2.68l3.72.43a10.22,10.22,0,0,1-10.29,5.63,10.45,10.45,0,0,1-8.91-11.38c.72-6.26,5.94-10.08,11.2-9.48a10.15,10.15,0,0,1,9.09,11.37,10.89,10.89,0,0,1-.32,1.85Zm13.13-1.39a6.47,6.47,0,0,0-12.8-1.47Z"/><path class="cls-5" d="M449.47,959l1.29-26.61,13.45.65-.18,3.56-9.56-.46-.39,8,9.57.47-.17,3.56-9.57-.47-.56,11.51Z"/><path class="cls-5" d="M478.49,940.18a3.56,3.56,0,0,0-3.71-3.88,3.7,3.7,0,0,0-3.6,3.6c0,1.87,1.24,3,3.82,3.82,5.74,1.88,7.85,4.06,7.81,8.67a7.78,7.78,0,0,1-8.24,8c-4.76,0-8.11-3.45-8.14-8.46l3.89,0c0,2.88,1.69,4.83,4.28,4.86a4.18,4.18,0,0,0,4.32-4.47c0-1.94-.84-3.17-3.67-4.17-6.57-2.29-8-4.46-8-8.24a7.35,7.35,0,0,1,7.52-7.21c4.39,0,7.53,2.84,7.56,7.49Z"/><path class="cls-5" d="M532.27,948.4a6.84,6.84,0,0,0,7.13,4.65,6.43,6.43,0,0,0,5.26-4l3.72-.43a10.21,10.21,0,0,1-8.73,7.82,10.45,10.45,0,0,1-11.27-9.06c-.72-6.26,3.5-11.17,8.75-11.77a10.15,10.15,0,0,1,11.44,9,11.2,11.2,0,0,1,.11,1.87Zm12.47-4.34a6.48,6.48,0,0,0-12.81,1.48Z"/><path class="cls-5" d="M550.44,931.93l-.7-4.33,3.69-.61.71,4.34Zm3.59,22-3.21-19.69,3.69-.6,3.22,19.68Z"/><path class="cls-5" d="M576.59,949.76l-2.1-10.66c-.82-4.14-2.83-5.76-6.08-5.11s-4.68,3.38-4,7l2.12,10.7-3.67.73L559,932.91l3.42-.68.41,2.08h.07a7,7,0,0,1,5.21-3.75c4.69-.92,8.74,1.36,9.81,6.76L580.27,949Z"/><path class="cls-5" d="M585.49,947.8l-3.76-16.09-1.72.4-.78-3.33,1.72-.4-.21-.88c-.87-3.71,1.31-6.26,4.92-7.1l.81-.19.78,3.33c-2.39.56-3.21,1.64-2.87,3.07l.21.92,3.4-.8.78,3.33-3.4.8L589.13,947Z"/><path class="cls-5" d="M610.69,941.35l-.82-3-.07,0a7.57,7.57,0,0,1-5.58,5.25,10.27,10.27,0,0,1-12.88-7c-1.68-6.15,1.56-11.66,7.22-13.2a7.94,7.94,0,0,1,7.55,1.42l.07,0-.73-2.71,3.61-1,5.24,19.25Zm-2.55-9.6a6.88,6.88,0,0,0-8.57-5.06,7.08,7.08,0,1,0,8.57,5.06Z"/><path class="cls-5" d="M635.56,926.58a10.29,10.29,0,0,1-20.06,3.21c-1.87-5.72.81-11.52,6.35-13.34a10.11,10.11,0,0,1,11.61,3.73l-3.93,1.29a5.93,5.93,0,0,0-6.51-1.81c-3.73,1.23-5.29,4.89-4,8.75s4.77,5.9,8.37,4.72a6,6,0,0,0,4.22-5.25Z"/><path class="cls-5" d="M654.08,926.61l-3.87-10.12c-1.52-4-3.76-5.23-6.86-4s-4.06,4.09-2.67,7.72l3.85,10.09-3.5,1.33-9.5-24.88,3.5-1.34,3.14,8.24.07,0a6.31,6.31,0,0,1,4.26-4.48c4.44-1.7,8.85-.14,10.8,5l4.28,11.2Z"/><path class="cls-5" d="M685.47,912.92l-.92-2-.06,0c-.17,1.94-1.81,3.78-4.19,4.89-3.89,1.82-8.51,1.43-11.48-4.93l-4.7-10.08,3.39-1.58,4.58,9.82c1.77,3.78,4,4.95,7.12,3.51s3.71-4.39,2.08-7.88L676.74,895l3.4-1.58,8.43,18.07Z"/><path class="cls-5" d="M705.81,902.54l-5.07-9.62c-2-3.73-4.35-4.71-7.28-3.16s-3.53,4.58-1.78,7.89l5.08,9.65-3.31,1.75-9.3-17.64,3.09-1.63,1,1.88.06,0a7,7,0,0,1,3.92-5.07c4.24-2.24,8.77-1.21,11.34,3.67l5.57,10.57Z"/><path class="cls-5" d="M726.73,887.46a8.27,8.27,0,0,1-4.31,6.21c-4.92,2.92-11.68,1.21-14.44-3.43a10.53,10.53,0,0,1,3.74-14.63,9.61,9.61,0,0,1,7.39-1.09l-1.18-2,3.22-1.91L730,885.51c3.31,5.57,1.92,11-3.9,14.51a10.39,10.39,0,0,1-11.7-.37l3.59-2.14a6.57,6.57,0,0,0,6.4-.45c3.93-2.34,4.73-5.71,2.39-9.64Zm-3.7-6.35a6.83,6.83,0,0,0-9.66-2.5,7.08,7.08,0,0,0,7.27,12.14A7.11,7.11,0,0,0,723,881.11Z"/><path class="cls-5" d="M733.17,876.65a6.86,6.86,0,0,0,8.46.89,6.43,6.43,0,0,0,2.88-5.94l3.12-2.08a10.23,10.23,0,0,1-4.22,10.94,10.44,10.44,0,0,1-14.16-2.94c-3.49-5.24-2-11.53,2.43-14.47A10.16,10.16,0,0,1,746,865.87a11.78,11.78,0,0,1,.95,1.61Zm9.13-9.55a6.48,6.48,0,0,0-10.73,7.15Z"/><path class="cls-5" d="M752.83,855.37a2.44,2.44,0,0,0-3.48-.45,2.16,2.16,0,0,0-.65,3.09c1,1.37,2.69.76,4.65.09,2.78-1,5.87-1.11,8.06,1.89s1.48,6.8-1.67,9.09a6.79,6.79,0,0,1-9.86-1.55l3-2.2c1.57,1.84,3.28,2.11,4.88.95a2.67,2.67,0,0,0,.72-3.91c-.81-1.11-2.18-1.22-4.52-.46-4.87,1.63-6.79.4-8.12-1.43a6,6,0,0,1,1.61-8.43,5.89,5.89,0,0,1,8.38,1.11Z"/><path class="cls-5" d="M757.87,841.22l-2.73-3.43,2.93-2.34,2.73,3.44Zm22.86,11.07-1.93-2.42-.06,0a7.59,7.59,0,0,1-3,7,10.28,10.28,0,0,1-14.6-1.35c-4-5-3.18-11.32,1.41-15a8,8,0,0,1,7.5-1.69l0,0-1.75-2.2,2.93-2.33L783.66,850Zm-18.49-14.54-2.74-3.44,2.93-2.33,2.74,3.43Zm12.35,6.72a6.87,6.87,0,0,0-9.87-1.24,7.08,7.08,0,1,0,9.87,1.24Z"/><path class="cls-5" d="M788.12,846.07l-10.78-12.53-2.05,1.77-2.22-2.6,2-1.76-4.37-5.07,2.84-2.44,4.37,5.07,2.48-2.14,2.23,2.6-2.48,2.13L791,843.63Z"/><path class="cls-5" d="M795.88,839.31l-11-12.29-2,1.81-2.28-2.55,2-1.8-4.48-5,2.79-2.5,4.47,5,2.44-2.19,2.28,2.54-2.43,2.19,11,12.29Z"/><path class="cls-5" d="M787.92,816.48l-3-3.2,2.74-2.56,3,3.21Zm15.2,16.25L789.5,818.17l2.73-2.56,13.62,14.57Z"/><path class="cls-5" d="M819.53,813.05a8.27,8.27,0,0,1-2.63,7.08c-4,4.06-11,4.08-14.84.27a10.53,10.53,0,0,1,0-15.1,9.66,9.66,0,0,1,6.89-2.89l-1.63-1.62,2.64-2.66,12.28,12.21c4.59,4.57,4.61,10.22-.16,15a10.38,10.38,0,0,1-11.43,2.55l3-3a6.54,6.54,0,0,0,6.08-2c3.22-3.24,3.16-6.7-.08-9.93Zm-5.16-5.23a6.84,6.84,0,0,0-10,0,7.08,7.08,0,1,0,10,0Z"/><path class="cls-5" d="M827.93,808l-12.14-11.21-1.83,2-2.51-2.32,1.83-2-4.92-4.55,2.53-2.75,4.93,4.54,2.22-2.4,2.51,2.31L818.33,794l12.14,11.21Z"/><path class="cls-5" d="M830.21,793.08a6.84,6.84,0,0,0,8.39-1.42,6.47,6.47,0,0,0,1.17-6.5l2.44-2.84A10.22,10.22,0,0,1,841.1,794a10.46,10.46,0,0,1-14.43,1c-4.77-4.11-5-10.57-1.56-14.59a10.15,10.15,0,0,1,14.51-1.15,10.9,10.9,0,0,1,1.35,1.3Zm6.21-11.65a6.48,6.48,0,0,0-8.4,9.78Z"/><path class="cls-5" d="M856.78,774l-21.31-16,8.08-10.77,2.85,2.14L840.66,757l6.39,4.8,5.75-7.66,2.85,2.13L849.9,764l9.22,6.91Z"/><path class="cls-5" d="M857.45,739.42a3.57,3.57,0,0,0-5.3.89,3.71,3.71,0,0,0,1,5c1.54,1.07,3.14.64,5.29-1,4.79-3.69,7.77-4.21,11.56-1.59a7.77,7.77,0,0,1,2,11.3c-2.7,3.91-7.41,4.77-11.56,2l2.21-3.2c2.39,1.61,4.95,1.32,6.42-.81a4.19,4.19,0,0,0-1.27-6.09c-1.6-1.1-3.09-1.09-5.51.7-5.58,4.15-8.17,4.11-11.28,2a7.33,7.33,0,0,1-1.75-10.26c2.49-3.61,6.57-4.65,10.44-2.07Z"/></g></svg>