<svg xmlns="http://www.w3.org/2000/svg" viewBox="0 0 974.89 982.75"><defs><style>.cls-1{fill:none;stroke:#323737;stroke-miterlimit:10;}.cls-2{font-size:22.15px;font-family:ITCAvantGardePro-Md, ITC Avant Garde Gothic Pro;font-weight:500;}.cls-2,.cls-3{fill:#323737;}.cls-3{font-size:31px;font-family:ITCAvantGardePro-Bold, ITC Avant Garde Gothic Pro;font-weight:700;}.cls-4{fill:#fff;}.cls-5{fill:#37962c;}.cls-6{fill:#e61e0a;}</style></defs><title>Element 19</title><g id="Ebene_2" data-name="Ebene 2"><g id="K3"><circle class="cls-1" cx="478.61" cy="482.33" r="428.75"/><line class="cls-1" x1="478.61" y1="482.33" x2="478.61" y2="53.57"/><line class="cls-1" x1="478.61" y1="482.33" x2="811.82" y2="212.5"/><line class="cls-1" x1="478.61" y1="482.33" x2="898" y2="571.47"/><line class="cls-1" x1="478.61" y1="482.33" x2="666.57" y2="867.69"/><line class="cls-1" x1="478.61" y1="482.33" x2="297.41" y2="870.91"/><line class="cls-1" x1="478.61" y1="482.33" x2="60.85" y2="578.78"/><line class="cls-1" x1="478.61" y1="482.33" x2="140.75" y2="218.36"/><text class="cls-2" transform="translate(566.25 947.1) rotate(-11.55)">e</text><text class="cls-2" transform="matrix(0.98, -0.22, 0.22, 0.98, 580.77, 944.07)">i</text><text class="cls-2" transform="matrix(0.97, -0.24, 0.24, 0.97, 586.53, 942.8)">n</text><text class="cls-2" transform="translate(600.54 939.24) rotate(-15.35)">f</text><text class="cls-2" transform="translate(606.65 937.62) rotate(-16.67)">a</text><text class="cls-2" transform="translate(622.03 932.99) rotate(-18.53)">c</text><text class="cls-2" transform="translate(635.53 928.46) rotate(-20.25)">h</text><text class="cls-2" transform="translate(649.03 923.42) rotate(-21.54)"> </text><text class="cls-2" transform="translate(655.7 920.83) rotate(-22.84)">u</text><text class="cls-2" transform="matrix(0.91, -0.41, 0.41, 0.91, 669, 915.16)">n</text><text class="cls-2" transform="matrix(0.9, -0.44, 0.44, 0.9, 682.3, 909.14)">g</text><text class="cls-2" transform="translate(696.44 902.1) rotate(-28.21)">e</text><text class="cls-2" transform="translate(709.52 895.04) rotate(-29.71)">s</text><text class="cls-2" transform="matrix(0.85, -0.52, 0.52, 0.85, 718.3, 890.07)">채</text><text class="cls-2" transform="matrix(0.84, -0.54, 0.54, 0.84, 732, 881.66)">t</text><text class="cls-2" transform="matrix(0.83, -0.55, 0.55, 0.83, 737.63, 878.05)">t</text><text class="cls-2" transform="matrix(0.83, -0.56, 0.56, 0.83, 743.21, 874.35)">i</text><text class="cls-2" transform="translate(748.13 871.07) rotate(-35.59)">g</text><text class="cls-2" transform="matrix(0.8, -0.6, 0.6, 0.8, 761.16, 861.66)">t</text><text class="cls-2" transform="matrix(0.78, -0.62, 0.62, 0.78, 766.61, 857.61)">e</text><text class="cls-2" transform="translate(778.24 848.36) rotate(-39.64)"> </text><text class="cls-2" transform="translate(783.73 843.83) rotate(-40.77)">F</text><text class="cls-2" transform="matrix(0.74, -0.67, 0.67, 0.74, 792.31, 836.43)">S</text><text class="cls-2" transform="matrix(0.77, 0.64, -0.64, 0.77, 168.71, 839.34)">m</text><text class="cls-2" transform="translate(185.92 853.49) rotate(37.4)">e</text><text class="cls-2" transform="translate(197.77 862.53) rotate(35.61)">h</text><text class="cls-2" transform="matrix(0.83, 0.56, -0.56, 0.83, 209.53, 870.9)">r</text><text class="cls-2" transform="matrix(0.83, 0.55, -0.55, 0.83, 215.85, 875.19)">f</text><text class="cls-2" transform="matrix(0.85, 0.53, -0.53, 0.85, 221.1, 878.71)">a</text><text class="cls-2" transform="matrix(0.86, 0.5, -0.5, 0.86, 234.73, 887.22)">c</text><text class="cls-2" transform="translate(247.04 894.38) rotate(28.5)">h</text><text class="cls-2" transform="translate(259.71 901.21) rotate(27.21)"> </text><text class="cls-2" transform="translate(266.08 904.5) rotate(26.05)">u</text><text class="cls-2" transform="matrix(0.91, 0.41, -0.41, 0.91, 279.14, 910.85)">n</text><text class="cls-2" transform="matrix(0.92, 0.38, -0.38, 0.92, 292.37, 916.8)">g</text><text class="cls-2" transform="matrix(0.94, 0.35, -0.35, 0.94, 307.02, 922.81)">e</text><text class="cls-2" transform="matrix(0.95, 0.33, -0.33, 0.95, 320.96, 927.99)">s</text><text class="cls-2" transform="translate(330.48 931.31) rotate(17.45)">채</text><text class="cls-2" transform="translate(345.83 936.07) rotate(16.06)">t</text><text class="cls-2" transform="translate(352.28 937.92) rotate(15.24)">t</text><text class="cls-2" transform="matrix(0.97, 0.25, -0.25, 0.97, 358.73, 939.67)">i</text><text class="cls-2" transform="translate(364.42 941.2) rotate(13.15)">g</text><text class="cls-2" transform="matrix(0.98, 0.2, -0.2, 0.98, 380.11, 944.79)">t</text><text class="cls-2" transform="translate(386.74 946.21) rotate(10.43)">e</text><text class="cls-2" transform="translate(401.35 948.85) rotate(9.08)"> </text><text class="cls-2" transform="translate(408.4 949.99) rotate(7.96)">F</text><text class="cls-2" transform="translate(419.62 951.55) rotate(6.55)">S</text><text class="cls-2" transform="matrix(0.11, 0.99, -0.99, 0.11, 8.52, 528.67)">B</text><text class="cls-2" transform="matrix(0.14, 0.99, -0.99, 0.14, 10.03, 542.13)">a</text><text class="cls-2" transform="matrix(0.17, 0.99, -0.99, 0.17, 12.39, 558.04)">l</text><text class="cls-2" transform="matrix(0.18, 0.98, -0.98, 0.18, 13.36, 563.78)">l</text><text class="cls-2" transform="translate(14.41 569.52) rotate(78.93)">a</text><text class="cls-2" transform="translate(17.61 585.27) rotate(76.9)">s</text><text class="cls-2" transform="translate(19.97 595.31) rotate(75.87)">t</text><text class="cls-2" transform="translate(21.61 601.85) rotate(74.86)">s</text><text class="cls-2" transform="translate(24.32 611.78) rotate(73.82)">t</text><text class="cls-2" transform="matrix(0.3, 0.95, -0.95, 0.3, 26.17, 618.31)">o</text><text class="cls-2" transform="translate(30.91 633.21) rotate(70.79)">ff</text><text class="cls-2" transform="translate(34.77 644.33) rotate(69.2)">e</text><text class="cls-2" transform="translate(904.1 689.19) rotate(-65.06)">g</text><text class="cls-2" transform="matrix(0.39, -0.92, 0.92, 0.39, 910.74, 674.86)">e</text><text class="cls-2" transform="matrix(0.37, -0.93, 0.93, 0.37, 916.55, 661.14)">s</text><text class="cls-2" transform="translate(920.27 651.81) rotate(-70.01)">채</text><text class="cls-2" transform="translate(925.72 636.65) rotate(-71.4)">t</text><text class="cls-2" transform="matrix(0.31, -0.95, 0.95, 0.31, 927.84, 630.31)">t</text><text class="cls-2" transform="translate(929.88 623.94) rotate(-72.96)">i</text><text class="cls-2" transform="translate(931.66 618.33) rotate(-74.27)">g</text><text class="cls-2" transform="translate(935.96 602.83) rotate(-75.64)">t</text><text class="cls-2" transform="translate(937.79 596.18) rotate(-77.69)">e</text><text class="cls-2" transform="translate(940.98 581.8) rotate(-78.24)"> </text><text class="cls-2" transform="matrix(0.19, -0.98, 0.98, 0.19, 942.45, 574.82)">F</text><text class="cls-2" transform="translate(944.49 564.12) rotate(-80.86)">e</text><text class="cls-2" transform="translate(946.79 549.44) rotate(-82.16)">t</text><text class="cls-2" transform="translate(947.7 542.81) rotate(-82.97)">t</text><text class="cls-2" transform="matrix(0.1, -0.99, 0.99, 0.1, 948.54, 536.14)">s</text><text class="cls-2" transform="translate(949.62 526.15) rotate(-85.56)">채</text><text class="cls-2" transform="matrix(0.04, -1, 1, 0.04, 950.84, 510.13)">u</text><text class="cls-2" transform="matrix(0.02, -1, 1, 0.02, 951.45, 495.68)">r</text><text class="cls-2" transform="matrix(0, -1, 1, 0, 951.64, 488.12)">e</text><text class="cls-2" transform="translate(951.6 473.21) rotate(-91.93)">n</text><text class="cls-2" transform="translate(803.21 161.54) rotate(46.14)">P</text><text class="cls-2" transform="matrix(0.68, 0.74, -0.74, 0.68, 811.93, 170.67)">r</text><text class="cls-2" transform="translate(816.83 175.93) rotate(48.78)">o</text><text class="cls-2" transform="matrix(0.64, 0.77, -0.77, 0.64, 826.8, 187.39)">t</text><text class="cls-2" transform="translate(830.92 192.26) rotate(51.41)">e</text><text class="cls-2" transform="translate(839.89 203.5) rotate(53.52)">i</text><text class="cls-2" transform="matrix(0.59, 0.81, -0.81, 0.59, 843.32, 208)">n</text><text class="cls-2" transform="translate(851.6 219.33) rotate(55.61)">e</text><text class="cls-3" transform="translate(414.83 33.96) rotate(-6.68)">K</text><text class="cls-3" transform="matrix(1, -0.07, 0.07, 1, 435.3, 31.54)">a</text><text class="cls-3" transform="translate(457.46 30.08) rotate(-2.1)">l</text><text class="cls-3" transform="matrix(1, 0, 0, 1, 466.57, 29.65)">o</text><text class="cls-3" transform="translate(487.57 29.73) rotate(1.07)">r</text><text class="cls-3" transform="translate(499.69 30.07) rotate(3.16)">i</text><text class="cls-3" transform="matrix(1, 0.09, -0.09, 1, 508.78, 30.48)">e</text><text class="cls-3" transform="translate(528.85 32.24) rotate(7.49)">n</text><text class="cls-2" transform="translate(94.42 237.01) rotate(-56.72)">Z</text><text class="cls-2" transform="translate(100.13 228.26) rotate(-55.2)">u</text><text class="cls-2" transform="matrix(0.6, -0.8, 0.8, 0.6, 108.14, 216.76)">c</text><text class="cls-2" transform="translate(116.42 205.66) rotate(-52.23)">k</text><text class="cls-2" transform="matrix(0.64, -0.77, 0.77, 0.64, 123.33, 196.77)">e</text><text class="cls-2" transform="translate(132.58 185.67) rotate(-48.99)">r</text><circle class="cls-4" cx="665.6" cy="866.84" r="15.99"/><path class="cls-5" d="M674.15,861.75a1.82,1.82,0,0,0-2.57,0l-7.8,7.79-4.16-4.16a1.82,1.82,0,0,0-2.57,2.57l5.45,5.45a1.82,1.82,0,0,0,1.28.53,1.84,1.84,0,0,0,1.29-.53l9.08-9.08A1.82,1.82,0,0,0,674.15,861.75Z"/><path class="cls-5" d="M665.6,848.5a18.17,18.17,0,1,0,18.16,18.16A18.18,18.18,0,0,0,665.6,848.5Zm0,32.69a14.53,14.53,0,1,1,14.53-14.53A14.54,14.54,0,0,1,665.6,881.19Z"/><circle class="cls-4" cx="296.85" cy="869.86" r="15.99"/><path class="cls-5" d="M305.4,864.76a1.82,1.82,0,0,0-2.57,0l-7.8,7.8-4.16-4.16A1.81,1.81,0,0,0,288.3,871l5.45,5.45a1.79,1.79,0,0,0,2.56,0l9.09-9.08A1.82,1.82,0,0,0,305.4,864.76Z"/><path class="cls-5" d="M296.85,851.52A18.16,18.16,0,1,0,315,869.68,18.18,18.18,0,0,0,296.85,851.52Zm0,32.69a14.53,14.53,0,1,1,14.53-14.53A14.54,14.54,0,0,1,296.85,884.21Z"/><circle class="cls-4" cx="61.04" cy="577.06" r="15.99"/><path class="cls-5" d="M69.59,572A1.82,1.82,0,0,0,67,572l-7.8,7.8-4.16-4.17a1.82,1.82,0,0,0-2.57,2.57l5.45,5.45a1.81,1.81,0,0,0,2.56,0l9.09-9.08A1.82,1.82,0,0,0,69.59,572Z"/><path class="cls-5" d="M61,558.72A18.17,18.17,0,1,0,79.2,576.89,18.19,18.19,0,0,0,61,558.72Zm0,32.7a14.54,14.54,0,1,1,14.53-14.53A14.54,14.54,0,0,1,61,591.42Z"/><circle class="cls-4" cx="810.49" cy="212.28" r="15.99"/><path class="cls-5" d="M819,207.19a1.82,1.82,0,0,0-2.57,0l-7.8,7.8-4.17-4.17a1.81,1.81,0,0,0-2.56,2.57l5.45,5.45a1.81,1.81,0,0,0,2.56,0l9.09-9.08A1.82,1.82,0,0,0,819,207.19Z"/><path class="cls-5" d="M810.49,193.94a18.17,18.17,0,1,0,18.16,18.17A18.19,18.19,0,0,0,810.49,193.94Zm0,32.7A14.53,14.53,0,1,1,825,212.11,14.55,14.55,0,0,1,810.49,226.64Z"/><circle class="cls-4" cx="139.98" cy="218.34" r="15.99"/><path class="cls-6" d="M140.51,200a18.17,18.17,0,1,0,18.16,18.16A18.19,18.19,0,0,0,140.51,200Zm0,32.7A14.54,14.54,0,1,1,155,218.16,14.55,14.55,0,0,1,140.51,232.7Z"/><path class="cls-6" d="M147.24,222.33l-4.17-4.17,4.17-4.16a1.82,1.82,0,0,0-2.57-2.57l-4.16,4.17-4.17-4.17a1.82,1.82,0,0,0-2.57,2.57l4.17,4.16-4.17,4.17a1.82,1.82,0,0,0,0,2.57,1.84,1.84,0,0,0,1.29.53,1.82,1.82,0,0,0,1.28-.53l4.17-4.17,4.16,4.17a1.82,1.82,0,0,0,2.57,0A1.82,1.82,0,0,0,147.24,222.33Z"/><circle class="cls-4" cx="896.44" cy="572.07" r="15.99"/><path class="cls-6" d="M897,553.74a18.16,18.16,0,1,0,18.16,18.16A18.17,18.17,0,0,0,897,553.74Zm0,32.69A14.53,14.53,0,1,1,911.5,571.9,14.55,14.55,0,0,1,897,586.43Z"/><path class="cls-6" d="M903.7,576.06l-4.16-4.16,4.16-4.17a1.81,1.81,0,0,0-2.57-2.56L897,569.33l-4.16-4.16a1.81,1.81,0,0,0-2.57,2.56l4.16,4.17-4.16,4.16a1.82,1.82,0,0,0,0,2.57,1.79,1.79,0,0,0,1.28.54,1.81,1.81,0,0,0,1.29-.54l4.16-4.16,4.17,4.16a1.79,1.79,0,0,0,2.56,0A1.82,1.82,0,0,0,903.7,576.06Z"/></g></g></svg>