<?xml version="1.0" encoding="utf-8"?>
<!-- Generator: Adobe Illustrator 22.0.0, SVG Export Plug-In . SVG Version: 6.00 Build 0)  -->
<svg version="1.1" id="Layer_1" xmlns="http://www.w3.org/2000/svg" xmlns:xlink="http://www.w3.org/1999/xlink" x="0px" y="0px"
	 viewBox="0 0 1376.6 899.5" style="enable-background:new 0 0 1376.6 899.5;" xml:space="preserve">
<style type="text/css">
	.st0{clip-path:url(#SVGID_2_);}
	.st1{clip-path:url(#SVGID_4_);}
	.st2{clip-path:url(#SVGID_6_);}
</style>
<title>Logo_RGB_Element 4</title>
<g>
	<g>
		<g id="Ebene_2">
			<defs>
				<path id="SVGID_1_" d="M223.3,82.2C196.6,99.1-4.6,231.5,5.6,435.6c8.9,179,174.3,285.9,260.2,341.5
					C476.4,913.3,698,897.7,806.4,888.6c169.7-14.3,476.4-40.1,549.1-247.1c56.4-160.4-43.9-383.8-184.9-442.9
					c-110.3-46.2-192,30.5-340.4-35.8c-91.9-41-82.2-80.1-167.9-120.7C532.7-19.3,356.8-2.8,223.3,82.2z"/>
			</defs>
			<clipPath id="SVGID_2_">
				<use xlink:href="#SVGID_1_"  style="overflow:visible;"/>
			</clipPath>
			<g id="Ebene_1-2" class="st0">
				<g>
					<defs>
						<rect id="SVGID_3_" x="0.2" y="0.2" width="1376.2" height="899.1"/>
					</defs>
					<clipPath id="SVGID_4_">
						<use xlink:href="#SVGID_3_"  style="overflow:visible;"/>
					</clipPath>
					<g class="st1">
						<g>
							<defs>
								<rect id="SVGID_5_" x="0.2" y="0.2" width="1376.2" height="899.1"/>
							</defs>
							<clipPath id="SVGID_6_">
								<use xlink:href="#SVGID_5_"  style="overflow:visible;"/>
							</clipPath>
							<g class="st2">
								
									<image style="overflow:visible;enable-background:new    ;" width="2868" height="1874" xlink:href="DA76E0EAD71AA3C9.png"  transform="matrix(0.48 0 0 -0.48 -0.1078 899.5591)">
								</image>
							</g>
						</g>
					</g>
				</g>
			</g>
		</g>
	</g>
</g>
</svg>
