<svg id="Layer_1" data-name="Layer 1" xmlns="http://www.w3.org/2000/svg" xmlns:xlink="http://www.w3.org/1999/xlink" viewBox="0 0 1376.64 899.52"><defs><style>.cls-1{fill:none;}.cls-2{clip-path:url(#clip-path);}.cls-3{clip-path:url(#clip-path-2);}.cls-4{isolation:isolate;}</style><clipPath id="clip-path" transform="translate(-0.11 0.04)"><path class="cls-1" d="M1153.4,817.3c26.7-17,227.9-149.3,217.7-353.4-9-179-174.3-285.9-260.2-341.5C900.3-13.7,678.6,1.8,570.3,10.9,400.5,25.2,93.9,51,21.2,258-35.2,418.4,65.1,641.8,206.1,700.9c110.3,46.2,192-30.5,340.4,35.8,91.9,41,82.2,80.1,167.9,120.7C844,918.8,1019.8,902.3,1153.4,817.3Z"/></clipPath><clipPath id="clip-path-2" transform="translate(-0.11 0.04)"><rect class="cls-1" x="0.2" y="0.2" width="1376.2" height="899.1"/></clipPath></defs><title>2FBR-bubble-RGB</title><g class="cls-2"><g id="Ebene_2" data-name="Ebene 2"><g id="Ebene_1-2" data-name="Ebene 1-2"><g class="cls-3"><g class="cls-3"><image class="cls-4" width="2868" height="1874" transform="matrix(-0.48, 0, 0, 0.48, 1376.64, 0)" xlink:href="B7D9E70BF54A4384.png"/></g></g></g></g></g></svg>