<?xml version="1.0" encoding="utf-8"?>
<!-- Generator: Adobe Illustrator 22.0.0, SVG Export Plug-In . SVG Version: 6.00 Build 0)  -->
<svg version="1.1" id="Layer_1" xmlns="http://www.w3.org/2000/svg" xmlns:xlink="http://www.w3.org/1999/xlink" x="0px" y="0px"
	 viewBox="0 0 1376.6 899.5" style="enable-background:new 0 0 1376.6 899.5;" xml:space="preserve">
<style type="text/css">
	.st0{clip-path:url(#SVGID_2_);}
	.st1{clip-path:url(#SVGID_4_);}
	.st2{clip-path:url(#SVGID_6_);}
</style>
<title>Logo_RGB_Element 4</title>
<g>
	<g>
		<g id="Ebene_2">
			<defs>
				<path id="SVGID_1_" d="M714.4,42.1c-85.7,40.6-76.1,79.7-167.9,120.7c-148.4,66.3-230.1-10.4-340.4,35.8
					C65.1,257.7-35.2,481.1,21.2,641.5c72.7,207,379.3,232.8,549.1,247.1c108.3,9.1,330,24.7,540.5-111.5
					c85.9-55.6,251.3-162.5,260.2-341.5c10.2-204.1-191-336.5-217.7-353.4C1019.8-2.8,844-19.3,714.4,42.1z"/>
			</defs>
			<clipPath id="SVGID_2_">
				<use xlink:href="#SVGID_1_"  style="overflow:visible;"/>
			</clipPath>
			<g id="Ebene_1-2" class="st0">
				<g>
					<defs>
						<rect id="SVGID_3_" x="0.2" y="0.2" width="1376.2" height="899.1"/>
					</defs>
					<clipPath id="SVGID_4_">
						<use xlink:href="#SVGID_3_"  style="overflow:visible;"/>
					</clipPath>
					<g class="st1">
						<g>
							<defs>
								<rect id="SVGID_5_" x="0.2" y="0.2" width="1376.2" height="899.1"/>
							</defs>
							<clipPath id="SVGID_6_">
								<use xlink:href="#SVGID_5_"  style="overflow:visible;"/>
							</clipPath>
							<g class="st2">
								
									<image style="overflow:visible;enable-background:new    ;" width="2868" height="1874" xlink:href="5DA0B98FA29AE004.png"  transform="matrix(-0.48 0 0 -0.48 1376.7478 899.5591)">
								</image>
							</g>
						</g>
					</g>
				</g>
			</g>
		</g>
	</g>
</g>
</svg>
